<svg width="150" height="150" viewBox="0 0 150 150" fill="none" xmlns="http://www.w3.org/2000/svg">
<rect width="150" height="150" rx="38" fill="#101010"/>
<path d="M28 74C28 48.0426 49.0426 27 75 27V27C100.957 27 122 48.0426 122 74V75C122 100.957 100.957 122 75 122V122C49.0426 122 28 100.957 28 75V74Z" fill="#F4F4F4"/>
<rect x="56" y="55" width="39" height="39" rx="19.5" stroke="#101010" stroke-width="18"/>
<path d="M78.2781 79.3344C74.9882 76.539 74.9882 71.461 78.2781 68.6656L100.217 50.0241C104.764 46.1608 111.75 49.3922 111.75 55.3585L111.75 92.6415C111.75 98.6078 104.764 101.839 100.217 97.9759L78.2781 79.3344Z" fill="#F4F4F4"/>
</svg>
